<svg width="56" height="56" viewBox="0 0 56 56" fill="none" xmlns="http://www.w3.org/2000/svg">
<path d="M49 10.0882V45.9118C49 46.7308 48.6746 47.5163 48.0955 48.0955C47.5163 48.6746 46.7308 49 45.9118 49H10.0882C9.26918 49 8.48368 48.6746 7.90452 48.0955C7.32537 47.5163 7 46.7308 7 45.9118V10.0882C7 9.26918 7.32537 8.48368 7.90452 7.90452C8.48368 7.32537 9.26918 7 10.0882 7H45.9118C46.7308 7 47.5163 7.32537 48.0955 7.90452C48.6746 8.48368 49 9.26918 49 10.0882ZM19.3529 23.0588H13.1765V42.8235H19.3529V23.0588ZM19.9088 16.2647C19.9121 15.7975 19.8233 15.3342 19.6475 14.9014C19.4717 14.4685 19.2124 14.0745 18.8843 13.7418C18.5562 13.4092 18.1659 13.1444 17.7355 12.9626C17.3051 12.7808 16.8431 12.6856 16.3759 12.6824H16.2647C15.3146 12.6824 14.4034 13.0598 13.7316 13.7316C13.0598 14.4034 12.6824 15.3146 12.6824 16.2647C12.6824 17.2148 13.0598 18.126 13.7316 18.7978C14.4034 19.4696 15.3146 19.8471 16.2647 19.8471C16.7319 19.8586 17.1969 19.7779 17.6329 19.6096C18.0689 19.4414 18.4676 19.1889 18.806 18.8665C19.1444 18.5442 19.416 18.1583 19.6052 17.7309C19.7944 17.3036 19.8976 16.8431 19.9088 16.3759V16.2647ZM42.8235 30.8165C42.8235 24.8747 39.0435 22.5647 35.2882 22.5647C34.0587 22.5031 32.8345 22.765 31.7377 23.3242C30.6409 23.8835 29.71 24.7205 29.0376 25.7518H28.8647V23.0588H23.0588V42.8235H29.2353V32.3112C29.146 31.2345 29.4852 30.1661 30.179 29.3381C30.8729 28.5101 31.8655 27.9893 32.9412 27.8888H33.1759C35.14 27.8888 36.5976 29.1241 36.5976 32.2371V42.8235H42.7741L42.8235 30.8165Z" fill="black"/>
</svg>
