<svg width="43" height="42" viewBox="0 0 43 42" fill="none" xmlns="http://www.w3.org/2000/svg">
<path fill-rule="evenodd" clip-rule="evenodd" d="M14.0102 13.3675C15.9989 11.3432 18.6962 10.206 21.5088 10.206C24.3213 10.206 27.0186 11.3432 29.0074 13.3675C30.9961 15.3918 32.1134 18.1373 32.1134 21C32.1134 23.8628 30.9961 26.6082 29.0074 28.6325C27.0186 30.6568 24.3213 31.794 21.5088 31.794C18.6962 31.794 15.9989 30.6568 14.0102 28.6325C12.0214 26.6082 10.9041 23.8628 10.9041 21C10.9041 18.1373 12.0214 15.3918 14.0102 13.3675ZM18.8744 27.4736C19.7096 27.8258 20.6047 28.007 21.5088 28.007C23.3345 28.007 25.0855 27.2688 26.3765 25.9547C27.6676 24.6406 28.3928 22.8584 28.3928 21C28.3928 19.1416 27.6676 17.3594 26.3765 16.0453C25.0855 14.7312 23.3345 13.993 21.5088 13.993C20.6047 13.993 19.7096 14.1742 18.8744 14.5264C18.0391 14.8785 17.2802 15.3946 16.641 16.0453C16.0018 16.696 15.4947 17.4684 15.1487 18.3185C14.8028 19.1687 14.6247 20.0798 14.6247 21C14.6247 21.9202 14.8028 22.8313 15.1487 23.6815C15.4947 24.5316 16.0018 25.304 16.641 25.9547C17.2802 26.6054 18.0391 27.1215 18.8744 27.4736Z" fill="black"/>
<path d="M34.4643 11.8142C34.9344 11.3357 35.1985 10.6867 35.1985 10.01C35.1985 9.33331 34.9344 8.68432 34.4643 8.20582C33.9942 7.72732 33.3566 7.45851 32.6918 7.45851C32.0269 7.45851 31.3893 7.72732 30.9192 8.20582C30.4491 8.68432 30.185 9.33331 30.185 10.01C30.185 10.6867 30.4491 11.3357 30.9192 11.8142C31.3893 12.2927 32.0269 12.5615 32.6918 12.5615C33.3566 12.5615 33.9942 12.2927 34.4643 11.8142Z" fill="black"/>
<path fill-rule="evenodd" clip-rule="evenodd" d="M13.0031 0.126C15.2038 0.0238001 15.9052 0 21.5088 0C27.1137 0 27.8138 0.0251997 30.0131 0.126C32.2097 0.2282 33.7117 0.5852 35.0238 1.1018C36.4 1.6294 37.6466 2.45591 38.677 3.5238C39.7265 4.57285 40.5385 5.84229 41.0565 7.2436C41.5668 8.5792 41.9162 10.1066 42.0166 12.3424C42.117 14.5824 42.1404 15.2964 42.1404 21C42.1404 26.7036 42.117 27.4176 42.0166 29.6576C41.9162 31.8934 41.5668 33.4208 41.0579 34.7564C40.5395 36.1571 39.7275 37.426 38.6784 38.4748C37.6468 39.5444 36.3993 40.3704 35.0238 40.8968C33.7117 41.4162 32.2111 41.7718 30.0145 41.874C27.8138 41.9762 27.1123 42 21.5088 42C15.9052 42 15.2038 41.9762 13.0031 41.874C10.8065 41.7718 9.30588 41.4162 7.99372 40.8982C6.6176 40.3706 5.37097 39.5441 4.34055 38.4762C3.28972 37.4262 2.47821 36.1564 1.96104 34.7564C1.45076 33.4208 1.10139 31.8934 1.00099 29.6576C0.90058 27.4176 0.877197 26.705 0.877197 21C0.877197 15.295 0.901955 14.5824 1.00099 12.3438C1.10139 10.108 1.45213 8.5792 1.95967 7.2436C2.47801 5.84289 3.29002 4.57399 4.33918 3.5252C5.37076 2.4556 6.61828 1.6296 7.99372 1.1032C9.30588 0.5838 10.8065 0.2282 13.0031 0.126ZM29.8467 3.906C27.6707 3.8052 27.0174 3.7842 21.5088 3.7842C16.0001 3.7842 15.3468 3.8052 13.1709 3.906C11.16 3.9998 10.0679 4.3414 9.34027 4.6298C8.44405 4.96577 7.63327 5.50206 6.96764 6.1992C6.24691 6.9342 5.79852 7.6342 5.42577 8.6142C5.14106 9.3548 4.80683 10.4664 4.71467 12.5132C4.61564 14.728 4.59501 15.393 4.59501 21C4.59501 26.607 4.61564 27.272 4.71467 29.4868C4.80683 31.5336 5.14243 32.6452 5.42577 33.3858C5.75605 34.2979 6.28291 35.1231 6.96764 35.8008C7.63336 36.4978 8.44411 37.0341 9.34027 37.3702C10.0679 37.66 11.16 38.0002 13.1709 38.094C15.3468 38.1948 15.9988 38.2158 21.5088 38.2158C27.0188 38.2158 27.6707 38.1948 29.8467 38.094C31.8576 38.0002 32.9497 37.6586 33.6773 37.3702C34.5735 37.0343 35.3843 36.498 36.0499 35.8008C36.7347 35.1232 37.2616 34.298 37.5918 33.3858C37.8765 32.6452 38.2107 31.5336 38.3029 29.4868C38.4019 27.272 38.4225 26.607 38.4225 21C38.4225 15.393 38.4019 14.728 38.3029 12.5132C38.2107 10.4664 37.8751 9.3548 37.5918 8.6142C37.219 7.6342 36.772 6.9342 36.0499 6.1992C35.3278 5.4656 34.6401 5.0092 33.6773 4.6298C32.9497 4.34 31.8576 3.9998 29.8467 3.906Z" fill="black"/>
</svg>
